# xmcd
#
# Track frame offsets: 
#        150
#        14984
#        29175
#        45956
#        63643
#        80355
#        98920
#        113963
#        129950
#        146786
#        164595
#        189257
#
# Disc length: 2735 seconds
#
# Revision: 0
# Processed by: cddbd v1.5.2PL0 Copyright (c) Steve Scherf et al.
# Submitted via: ExactAudioCopyFreeDBPlugin 1.0
#
DISCID=ab0aad0c
DTITLE=Marian Hill - Act One
DYEAR=2016
DGENRE=Electronic
TTITLE0=Down
TTITLE1=Talk To Me
TTITLE2=Wild
TTITLE3=Bout You
TTITLE4=Take Your Time
TTITLE5=I Know Why
TTITLE6=Good
TTITLE7=Thinking
TTITLE8=Sad Song
TTITLE9=Mistaken
TTITLE10=Same Thing
TTITLE11=I Want You
EXTD=
EXTT0=
EXTT1=
EXTT2=
EXTT3=
EXTT4=
EXTT5=
EXTT6=
EXTT7=
EXTT8=
EXTT9=
EXTT10=
EXTT11=
PLAYORDER=
